<svg class="icon" viewBox="0 0 1024 1024" version="1.1" xmlns="http://www.w3.org/2000/svg" width="16" height="16">
    <path d="M409.6 0h204.8c225.28 0 409.6 184.32 409.6 409.6v204.8c0 225.28-184.32 409.6-409.6 409.6H409.6c-225.28 0-409.6-184.32-409.6-409.6V409.6c0-225.28 184.32-409.6 409.6-409.6z"
          fill="#10CC77"></path>
    <path d="M256 645.12l92.16-128v128L256 737.28v-92.16z m512 0v92.16l-92.16-92.16v-128l92.16 128zM512 204.8c189.44 225.28 138.24 440.32 138.24 440.32H373.76S322.56 430.08 512 204.8z m10.24 327.68c25.6 0 46.08-20.48 46.08-46.08s-20.48-46.08-46.08-46.08-46.08 20.48-46.08 46.08 20.48 46.08 46.08 46.08z m0 276.48s-102.4-128 0-128 0 128 0 128z"
          fill="#FFFFFF"></path>
</svg>