<?xml version="1.0" encoding="utf-8"?>
<svg class="icon" viewBox="0 0 1024 1024" version="1.1" width="16" height="16" xmlns="http://www.w3.org/2000/svg">
  <path d="M 931.856 352.029 L 922.861 268.872 C 920.291 241.153 912.58 219.373 907.44 219.373 C 902.299 219.373 897.158 241.153 897.158 268.872 L 897.158 290.651 C 897.158 318.371 883.022 340.15 865.031 340.15 L 848.308 340.15 L 848.308 399.549 L 904.87 399.549 C 922.861 399.549 934.445 377.769 931.856 352.029 M 803.311 280.752 L 623.361 280.752 L 623.361 268.872 C 623.361 241.153 619.507 219.373 613.081 219.373 C 606.656 219.373 601.497 241.153 597.642 268.872 L 588.646 352.029 C 586.076 379.749 597.642 401.528 615.651 401.528 L 668.34 401.528 C 673.48 401.528 678.639 399.549 683.779 397.569 C 682.493 411.427 674.766 421.329 664.503 421.329 L 589.932 421.329 C 578.364 421.329 569.37 403.509 570.655 385.689 L 578.364 316.39 C 579.65 298.571 570.655 280.752 559.089 280.752 L 186.303 280.752 C 178.593 280.752 172.167 288.672 168.312 298.571 L 97.614 462.907 C 96.329 464.888 96.329 468.847 97.614 472.806 L 111.75 496.566 C 113.035 500.526 116.89 500.526 118.175 498.546 L 165.742 441.128 L 165.742 793.558 C 165.742 811.378 174.738 823.258 185.019 823.258 L 293.002 823.258 C 304.568 823.258 312.279 809.398 312.279 793.558 L 312.279 670.801 C 312.279 652.982 321.275 641.103 331.555 641.103 L 596.357 641.103 C 607.922 641.103 615.633 654.962 615.633 670.801 L 615.633 793.558 C 615.633 811.378 624.646 823.258 634.91 823.258 L 740.34 823.258 C 751.907 823.258 759.618 809.398 759.618 793.558 L 759.618 662.883 L 704.341 662.883 C 686.349 662.883 672.213 641.103 672.213 613.383 L 672.213 528.245 C 672.213 512.406 677.354 498.546 685.064 488.646 L 685.064 589.623 C 685.064 617.343 699.2 639.123 717.192 639.123 L 803.311 639.123 C 821.32 639.123 835.456 617.343 835.456 589.623 L 835.456 332.23 C 835.456 302.532 821.32 280.752 803.329 280.752" fill="#0876A9" style=""/>
</svg>