<?xml version="1.0" standalone="no"?><!DOCTYPE svg PUBLIC "-//W3C//DTD SVG 1.1//EN"
        "http://www.w3.org/Graphics/SVG/1.1/DTD/svg11.dtd">
<svg t="1664467062520" class="icon" viewBox="0 0 1024 1024" version="1.1" xmlns="http://www.w3.org/2000/svg"
     p-id="97000"
     width="16" height="16">
    <path d="M160 382.272h704v250.592H160z" fill="#D9FAFF" p-id="97001"></path>
    <path d="M160 350.272h704v64H160zM640 222.272h128v64h-128zM640 478.272h128v64h-128z" fill="#40D1E7"
          p-id="97002"></path>
    <path d="M864 94.272H160a32 32 0 0 0-32 32v544h64v-512h640v704h-256.032v64H864a32 32 0 0 0 32-32v-768a32 32 0 0 0-32-32"
          fill="#40D1E7" p-id="97003"></path>
    <path d="M150.72 606.272H864v64H150.72zM128 739.936h94.112c20.512 0 35.84 4.864 46.08 14.624 10.208 9.728 15.296 23.616 15.296 41.6 0 18.528-5.568 32.992-16.672 43.392-11.136 10.4-28.096 15.616-50.944 15.616h-31.008v68H128v-183.232z m56.864 78.08h13.888c10.88 0 18.592-1.92 22.976-5.696a18.304 18.304 0 0 0 6.624-14.56 20.352 20.352 0 0 0-5.728-14.624c-3.84-4-11.04-5.984-21.632-5.984h-16.128v40.864zM405.248 856.768v-38.112h87.488v78.112c-16.736 11.392-31.552 19.2-44.416 23.328-12.896 4.096-28.16 6.176-45.824 6.176-21.76 0-39.456-3.712-53.184-11.136a75.84 75.84 0 0 1-31.872-33.12c-7.52-14.656-11.328-31.488-11.328-50.496 0-20 4.128-37.408 12.384-52.192s20.352-26.016 36.256-33.696c12.416-5.888 29.12-8.864 50.112-8.864 20.256 0 35.424 1.856 45.44 5.504 10.048 3.648 18.368 9.344 24.992 17.056 6.624 7.712 11.616 17.472 14.944 29.312l-54.624 9.76a29.44 29.44 0 0 0-11.424-15.872c-5.376-3.68-12.224-5.504-20.576-5.504-12.384 0-22.304 4.32-29.696 12.928-7.36 8.64-11.04 22.272-11.04 40.928 0 19.872 3.712 34.016 11.168 42.528 7.488 8.48 17.856 12.736 31.2 12.736 6.336 0 12.384-0.896 18.112-2.752 5.76-1.856 12.352-4.96 19.776-9.376v-17.248h-37.888z"
          fill="#40D1E7" p-id="97004"></path>
</svg>