<?xml version="1.0" encoding="utf-8"?>
<svg viewBox="0 0 500 500" xmlns="http://www.w3.org/2000/svg">
  <path d="M 93.409 151.087 L 93.409 131.757 L 102.109 131.757 C 103.482 131.757 104.696 131.937 105.749 132.297 C 106.796 132.657 107.666 133.13 108.359 133.717 C 109.059 134.304 109.586 134.97 109.939 135.717 C 110.299 136.457 110.479 137.204 110.479 137.957 C 110.479 138.55 110.419 139.137 110.299 139.717 C 110.179 140.297 109.969 140.844 109.669 141.357 C 109.369 141.87 108.956 142.337 108.429 142.757 C 107.909 143.17 107.242 143.504 106.429 143.757 C 106.549 144.144 106.749 144.617 107.029 145.177 C 107.316 145.744 107.646 146.357 108.019 147.017 C 108.392 147.67 108.792 148.347 109.219 149.047 C 109.646 149.754 110.066 150.434 110.479 151.087 L 103.479 151.087 C 103.086 150.2 102.682 149.21 102.269 148.117 C 101.862 147.017 101.536 145.82 101.289 144.527 L 99.539 144.527 L 99.539 151.087 L 93.409 151.087 Z M 99.539 141.457 L 100.579 141.457 C 101.272 141.457 101.859 141.367 102.339 141.187 C 102.812 141.007 103.199 140.77 103.499 140.477 C 103.806 140.184 104.022 139.857 104.149 139.497 C 104.282 139.13 104.349 138.764 104.349 138.397 C 104.349 137.677 104.249 137.09 104.049 136.637 C 103.849 136.184 103.576 135.827 103.229 135.567 C 102.882 135.307 102.482 135.13 102.029 135.037 C 101.569 134.944 101.079 134.897 100.559 134.897 L 99.539 134.897 L 99.539 141.457 ZM 113.335 151.087 L 113.335 131.757 L 126.895 131.757 L 126.895 135.337 L 119.455 135.337 L 119.455 139.427 L 126.025 139.427 L 126.025 142.927 L 119.455 142.927 L 119.455 147.147 L 126.895 147.147 L 126.895 151.087 L 113.335 151.087 ZM 131.348 151.087 L 131.348 131.757 L 138.818 131.757 C 140.112 131.757 141.248 131.837 142.228 131.997 C 143.208 132.157 144.058 132.38 144.778 132.667 C 145.498 132.96 146.098 133.314 146.578 133.727 C 147.058 134.134 147.442 134.58 147.728 135.067 C 148.015 135.554 148.215 136.077 148.328 136.637 C 148.448 137.19 148.508 137.764 148.508 138.357 C 148.508 138.857 148.452 139.36 148.338 139.867 C 148.225 140.367 148.035 140.844 147.768 141.297 C 147.495 141.75 147.135 142.174 146.688 142.567 C 146.242 142.96 145.695 143.304 145.048 143.597 C 144.395 143.89 143.625 144.117 142.738 144.277 C 141.845 144.444 140.822 144.527 139.668 144.527 C 139.502 144.527 139.295 144.524 139.048 144.517 C 138.802 144.51 138.562 144.5 138.328 144.487 L 137.478 144.427 L 137.478 151.087 L 131.348 151.087 Z M 137.478 134.897 L 137.478 141.457 L 138.888 141.457 C 139.542 141.457 140.092 141.38 140.538 141.227 C 140.985 141.067 141.345 140.85 141.618 140.577 C 141.892 140.304 142.088 139.98 142.208 139.607 C 142.328 139.234 142.388 138.83 142.388 138.397 C 142.388 137.717 142.302 137.154 142.128 136.707 C 141.955 136.26 141.712 135.9 141.398 135.627 C 141.078 135.36 140.705 135.174 140.278 135.067 C 139.852 134.954 139.388 134.897 138.888 134.897 L 137.478 134.897 ZM 160.42 151.487 C 159.226 151.487 158.16 151.357 157.22 151.097 C 156.28 150.837 155.453 150.477 154.74 150.017 C 154.026 149.557 153.42 149.01 152.92 148.377 C 152.426 147.744 152.02 147.054 151.7 146.307 C 151.386 145.567 151.16 144.787 151.02 143.967 C 150.88 143.147 150.81 142.31 150.81 141.457 C 150.81 140.624 150.896 139.794 151.07 138.967 C 151.243 138.14 151.503 137.354 151.85 136.607 C 152.196 135.86 152.633 135.167 153.16 134.527 C 153.686 133.894 154.306 133.344 155.02 132.877 C 155.733 132.41 156.536 132.047 157.43 131.787 C 158.33 131.52 159.326 131.387 160.42 131.387 C 161.513 131.387 162.51 131.52 163.41 131.787 C 164.303 132.047 165.11 132.41 165.83 132.877 C 166.543 133.344 167.163 133.894 167.69 134.527 C 168.223 135.167 168.663 135.86 169.01 136.607 C 169.363 137.354 169.626 138.14 169.8 138.967 C 169.973 139.794 170.06 140.624 170.06 141.457 C 170.06 142.31 169.986 143.147 169.84 143.967 C 169.693 144.787 169.463 145.567 169.15 146.307 C 168.836 147.054 168.43 147.744 167.93 148.377 C 167.423 149.01 166.816 149.557 166.11 150.017 C 165.396 150.477 164.57 150.837 163.63 151.097 C 162.683 151.357 161.613 151.487 160.42 151.487 Z M 156.93 141.457 C 156.93 142.557 157.01 143.494 157.17 144.267 C 157.33 145.04 157.56 145.674 157.86 146.167 C 158.153 146.66 158.516 147.02 158.95 147.247 C 159.383 147.474 159.873 147.587 160.42 147.587 C 160.966 147.587 161.456 147.474 161.89 147.247 C 162.323 147.02 162.693 146.66 163 146.167 C 163.3 145.674 163.53 145.04 163.69 144.267 C 163.85 143.494 163.93 142.557 163.93 141.457 C 163.93 140.364 163.85 139.43 163.69 138.657 C 163.53 137.877 163.3 137.237 163 136.737 C 162.693 136.244 162.323 135.877 161.89 135.637 C 161.456 135.404 160.966 135.287 160.42 135.287 C 159.873 135.287 159.383 135.404 158.95 135.637 C 158.516 135.877 158.153 136.244 157.86 136.737 C 157.56 137.237 157.33 137.877 157.17 138.657 C 157.01 139.43 156.93 140.364 156.93 141.457 Z" transform="matrix(6.012975215911865, 0, 0, 10.459364891052246, -540.6505126953125, -1226.17529296875)" style="fill: rgb(51, 51, 51); white-space: pre;"/>
</svg>